<svg version="1.1" xmlns="http://www.w3.org/2000/svg" width="480" height="570">
<path d="M0 0 C0.66 0 1.32 0 2 0 C4.50666669 11.94871677 6.98579078 23.90280704 9.43187714 35.86408138 C10.56906921 41.4207241 11.71493643 46.97525052 12.88232422 52.52563477 C22.39626273 97.81595726 22.39626273 97.81595726 21 120 C27.93 120 34.86 120 42 120 C40.34456428 124.13858929 39.05448017 126.50634822 36.4375 129.9375 C32.66117513 134.9910097 29.25375254 140.19839851 25.97045898 145.57983398 C25.03122486 147.08619264 24.02155401 148.54820644 23 150 C22.34 150 21.68 150 21 150 C21 173.1 21 196.2 21 220 C27.93 220 34.86 220 42 220 C40.34456428 224.13858929 39.05448017 226.50634822 36.4375 229.9375 C32.66117513 234.9910097 29.25375254 240.19839851 25.97045898 245.57983398 C25.03122486 247.08619264 24.02155401 248.54820644 23 250 C22.34 250 21.68 250 21 250 C20.78078907 260.03350768 20.64667063 270.06449062 20.61396885 280.1004343 C20.59625307 284.76368869 20.55189956 289.42315848 20.44116211 294.08520508 C19.89397848 318.07100445 20.58885181 334.17459568 37 353 C39.87379862 356.63615057 41.50810426 359.4217776 41.390625 364.1796875 C41.38063477 365.01741699 41.37064453 365.85514648 41.36035156 366.71826172 C41.32393555 367.75998535 41.28751953 368.80170898 41.25 369.875 C41.1675 373.21625 41.085 376.5575 41 380 C54.2 380 67.4 380 81 380 C81 360.2 81 340.4 81 320 C87.6 320 94.2 320 101 320 C101.0825 318.659375 101.165 317.31875 101.25 315.9375 C104.24083817 287.83936248 120.48339039 264.29928197 141.359375 246.08203125 C146.27177401 242.20879357 151.5421457 239.03579146 157 236 C157.60054199 235.66081543 158.20108398 235.32163086 158.81982422 234.97216797 C174.46390104 226.25460145 192.92793701 219.73655885 211 220 C210.89558594 218.68515625 210.79117187 217.3703125 210.68359375 216.015625 C209.67130097 196.40245235 214.71418881 178.7065233 220 160 C220.66 160 221.32 160 222 160 C227.70718058 180.19775256 232.68186676 198.8209371 231 220 C231.71800781 220.01417969 232.43601562 220.02835938 233.17578125 220.04296875 C261.31899638 221.3397296 287.47747573 234.2413489 308 253 C308.74894531 253.67804688 309.49789063 254.35609375 310.26953125 255.0546875 C326.88508022 270.85092932 338.04742046 293.26073069 341 316 C341 317.32 341 318.64 341 320 C347.6 320 354.2 320 361 320 C361 339.8 361 359.6 361 380 C374.2 380 387.4 380 401 380 C401 442.7 401 505.4 401 570 C242.6 570 84.2 570 -79 570 C-79 507.3 -79 444.6 -79 380 C-65.8 380 -52.6 380 -39 380 C-39.268125 376.9475 -39.53625 373.895 -39.8125 370.75 C-40.27118426 358.60779453 -35.14432802 350.83251795 -27.87451172 341.52441406 C-26.94662842 340.2748291 -26.94662842 340.2748291 -26 339 C-25.49929993 338.45590988 -24.99859985 337.91181976 -24.48272705 337.35124207 C-18.32080031 329.82270809 -19.053447 321.11902272 -19.0625 311.89453125 C-19.04826985 310.12488356 -19.03286799 308.35524495 -19.01635742 306.58561707 C-18.98954878 302.88453517 -18.98629028 299.18430573 -18.99804688 295.4831543 C-19.00980804 290.77605155 -18.94877786 286.07309751 -18.86781311 281.36679554 C-18.81569607 277.71250498 -18.81033636 274.05918812 -18.81759644 270.40457726 C-18.81424472 268.67161355 -18.79525846 266.93859719 -18.75930786 265.20600319 C-18.5160753 252.03128431 -21.45612724 244.94272472 -30 235 C-31.00863778 233.55352462 -31.99947879 232.09376972 -32.9453125 230.60546875 C-33.31914063 230.02345703 -33.69296875 229.44144531 -34.078125 228.84179688 C-34.42359375 228.29587891 -34.7690625 227.74996094 -35.125 227.1875 C-35.50914063 226.59130859 -35.89328125 225.99511719 -36.2890625 225.38085938 C-39 221.13533761 -39 221.13533761 -39 220 C-32.4 220 -25.8 220 -19 220 C-18.9041954 210.98387811 -18.85188867 201.97024016 -18.87302971 192.953619 C-18.88117675 188.76527321 -18.8713649 184.5786787 -18.81835938 180.390625 C-18.76775606 176.33733383 -18.76713579 172.28665486 -18.79904556 168.23320389 C-18.80275427 166.69845504 -18.78940759 165.163553 -18.75750351 163.62913132 C-18.51543369 151.12428416 -22.04184494 144.47730944 -30 135 C-31.00661926 133.55211919 -31.99689993 132.09212768 -32.9453125 130.60546875 C-33.31914063 130.02345703 -33.69296875 129.44144531 -34.078125 128.84179688 C-34.42359375 128.29587891 -34.7690625 127.74996094 -35.125 127.1875 C-35.50914063 126.59130859 -35.89328125 125.99511719 -36.2890625 125.38085938 C-39 121.13533761 -39 121.13533761 -39 120 C-32.4 120 -25.8 120 -19 120 C-19.29390625 115.33037109 -19.29390625 115.33037109 -19.59375 110.56640625 C-20.03144308 89.86687125 -14.42495277 69.3691805 -10.19232178 49.24499512 C-9.02815408 43.68330532 -7.89236026 38.11582732 -6.75390625 32.54882812 C-4.52976505 21.69349377 -2.27507386 10.84476581 0 0 Z M102.80859375 356.5 C100.35439788 361.24937257 100.55515089 365.12156824 100.75 370.375 C100.76804688 371.30183594 100.78609375 372.22867187 100.8046875 373.18359375 C100.85155803 375.45681435 100.91714475 377.72785407 101 380 C105.1117256 380.02465746 109.22342278 380.04283959 113.33520508 380.05493164 C114.73495228 380.0599708 116.1346942 380.06680216 117.53442383 380.07543945 C119.54245777 380.0875232 121.55052957 380.09269807 123.55859375 380.09765625 C124.76829834 380.10289307 125.97800293 380.10812988 127.22436523 380.11352539 C129.90812017 380.31775285 129.90812017 380.31775285 131 379 C131.18135286 376.0894353 131.27828515 373.22532419 131.3125 370.3125 C131.35600586 369.1069043 131.35600586 369.1069043 131.40039062 367.87695312 C131.45860144 362.40065845 130.6312369 359.34688213 127 355 C123.29894924 351.66002736 120.76491504 350.16970337 115.75 349.6875 C109.92253647 350.17312196 106.63552501 352.13416041 102.80859375 356.5 Z M144.27734375 357.03125 C142.37970727 361.44165893 142.68286622 365.57264541 142.8125 370.3125 C142.874375 373.509375 142.93625 376.70625 143 380 C152.9 380 162.8 380 173 380 C174.46796295 366.73657618 174.46796295 366.73657618 169.8125 354.875 C165.90848072 351.54210979 162.76598559 350.23324338 157.6875 349.5625 C152.03249671 350.23343259 147.95375514 352.69625245 144.27734375 357.03125 Z M186.03637695 358.09619141 C183.95590777 361.91798143 184.49288779 366.1445094 184.6875 370.375 C184.790625 373.55125 184.89375 376.7275 185 380 C194.9 380 204.8 380 215 380 C216.47888608 366.71108077 216.47888608 366.71108077 211.75 354.875 C207.53332375 351.10882335 203.75637923 349.51720396 198.01953125 349.6875 C192.98402347 350.46668883 189.16452485 354.27698861 186.03637695 358.09619141 Z M228.03637695 358.09619141 C225.95590777 361.91798143 226.49288779 366.1445094 226.6875 370.375 C226.790625 373.55125 226.89375 376.7275 227 380 C236.9 380 246.8 380 257 380 C258.47888608 366.71108077 258.47888608 366.71108077 253.75 354.875 C249.53332375 351.10882335 245.75637923 349.51720396 240.01953125 349.6875 C234.98402347 350.46668883 231.16452485 354.27698861 228.03637695 358.09619141 Z M270.2590332 357.85375977 C267.9198 361.84138806 268.3750099 365.95058332 268.625 370.4375 C268.74875 373.593125 268.8725 376.74875 269 380 C278.9 380 288.8 380 299 380 C299.0825 376.82375 299.165 373.6475 299.25 370.375 C299.30462402 368.8907251 299.30462402 368.8907251 299.36035156 367.37646484 C299.43101761 361.73799809 298.86679007 358.41131131 295 354 C291.76623919 351.18082391 288.67755032 350.08320793 284.4375 349.5625 C278.11196023 350.3675687 274.26429762 353.07775257 270.2590332 357.85375977 Z M314.1875 356.0625 C311.63931456 359.48434902 310.87353029 360.95173711 310.8671875 365.09765625 C310.86589844 365.89880859 310.86460937 366.69996094 310.86328125 367.52539062 C310.86714844 368.36263672 310.87101562 369.19988281 310.875 370.0625 C310.87113281 370.90361328 310.86726563 371.74472656 310.86328125 372.61132812 C310.46396116 376.6242087 310.46396116 376.6242087 312 380 C314.14558827 380.08775605 316.29404421 380.10695219 318.44140625 380.09765625 C319.74658203 380.09443359 321.05175781 380.09121094 322.39648438 380.08789062 C323.7851569 380.07953401 325.17382877 380.07106905 326.5625 380.0625 C327.95507656 380.05748666 329.34765481 380.05292347 330.74023438 380.04882812 C334.1601987 380.03699434 337.58007844 380.0205088 341 380 C341.14660682 376.81299327 341.23449317 373.62686499 341.3125 370.4375 C341.35439453 369.54224609 341.39628906 368.64699219 341.43945312 367.72460938 C341.5603876 361.12158703 340.4267469 357.94027554 336 353 C328.29930456 347.8104009 320.16789055 349.05396208 314.1875 356.0625 Z M-46 477 C-46.89138672 477.78697266 -46.89138672 477.78697266 -47.80078125 478.58984375 C-54.06796814 484.4957294 -60.24190284 490.97448559 -60.81054688 499.89282227 C-60.81611974 502.0342283 -60.7839735 504.17598649 -60.71875 506.31640625 C-60.71121704 507.45407944 -60.70368408 508.59175262 -60.69592285 509.76390076 C-60.66361147 513.36471674 -60.58195494 516.96250882 -60.5 520.5625 C-60.4734364 523.01363999 -60.44996833 525.4648156 -60.4296875 527.91601562 C-60.37950402 532.3683608 -60.32398342 536.82018469 -60.22460938 541.27172852 C-60.20571655 542.16312027 -60.18682373 543.05451202 -60.1673584 543.97291565 C-60.22031313 545.99519604 -60.22031313 545.99519604 -59 547 C-56.54094779 547.1003188 -54.10996572 547.1361818 -51.65039062 547.12939453 C-50.88131882 547.13114685 -50.11224701 547.13289917 -49.31987 547.13470459 C-46.76530737 547.1391234 -44.21081339 547.13618502 -41.65625 547.1328125 C-39.88887519 547.13348553 -38.12150047 547.13445555 -36.35412598 547.13571167 C-32.64509197 547.13718868 -28.936082 547.13503398 -25.22705078 547.13037109 C-20.46177507 547.1246738 -15.69655568 547.12795279 -10.93128204 547.13394356 C-7.28028943 547.13754908 -3.62931027 547.13641062 0.02168274 547.13381577 C1.77924099 547.13314647 3.53680045 547.133975 5.2943573 547.13629532 C7.74640154 547.13882171 10.19835331 547.13498146 12.65039062 547.12939453 C13.75070366 547.13243088 13.75070366 547.13243088 14.87324524 547.13552856 C18.22137383 547.41575358 18.22137383 547.41575358 21 546 C21.13491194 544.46892864 21.20167752 542.93177765 21.24047852 541.39526367 C21.26622452 540.41301315 21.29197052 539.43076263 21.3184967 538.41874695 C21.40288985 533.87735529 21.46867598 529.33613302 21.51489258 524.79418945 C21.5463745 522.40915156 21.59396038 520.02426635 21.65844727 517.63989258 C22.58993974 500.24621057 22.58993974 500.24621057 15.14526367 485.18041992 C14.43732666 484.46088135 13.72938965 483.74134277 13 483 C12.25782227 482.14365967 11.51564453 481.28731934 10.75097656 480.4050293 C4.13026674 472.86100672 -5.18935971 467.49399412 -15.28515625 466.76171875 C-27.47652399 466.52217792 -36.72148669 468.78980166 -46 477 Z M69.3125 481.875 C68.20093526 483.24402624 67.09755841 484.61971939 66 486 C65.46773804 486.64634903 64.93547607 487.29269806 64.38708496 487.95863342 C59.71133738 494.17564493 59.16245803 499.10369832 59.34375 506.74609375 C59.34749634 507.83841812 59.35124268 508.93074249 59.35510254 510.0561676 C59.3684732 512.34803614 59.39616162 514.63986178 59.4375 516.93139648 C59.50024844 520.45143693 59.5194928 523.96968803 59.53125 527.49023438 C59.5495747 529.72137618 59.57032133 531.9524997 59.59375 534.18359375 C59.60224976 535.23872665 59.61074951 536.29385956 59.61950684 537.38096619 C59.63872192 538.3528035 59.65793701 539.32464081 59.67773438 540.32592773 C59.69139038 541.1825853 59.70504639 542.03924286 59.71911621 542.92185974 C59.81600329 545.22001856 59.81600329 545.22001856 62 547 C64.49409647 547.19300258 66.87664153 547.2623746 69.37133789 547.24291992 C70.13080215 547.24481827 70.89026642 547.24671661 71.67274475 547.24867249 C74.18948607 547.25238496 76.70594047 547.24167036 79.22265625 547.23046875 C80.96618109 547.22927721 82.70970658 547.22882373 84.45323181 547.2290802 C88.10924287 547.22751457 91.76515612 547.21921823 95.42114258 547.20581055 C100.11801567 547.18880801 104.8147813 547.18499651 109.51168156 547.18575573 C113.11206598 547.18548441 116.7124267 547.18000962 120.31280327 547.17275429 C122.04523985 547.16956233 123.77767912 547.16759899 125.51011848 547.16686058 C127.92614489 547.16470328 130.34205503 547.15597277 132.75805664 547.14526367 C133.48067688 547.14571686 134.20329712 547.14617004 134.94781494 547.14663696 C138.25707597 547.41161726 138.25707597 547.41161726 141 546 C141.13502664 544.43296189 141.20170097 542.85996433 141.24047852 541.28759766 C141.27909752 539.77934921 141.27909752 539.77934921 141.3184967 538.2406311 C141.40280772 533.597882 141.46865211 528.95529905 141.51489258 524.31201172 C141.54640312 521.87164183 141.5940197 519.43142199 141.65844727 516.99169922 C142.70010167 501.28824288 142.70010167 501.28824288 137.21484375 487.1484375 C135.85248096 485.72365096 134.44825428 484.33738872 133 483 C131.66252799 481.33665272 130.32866728 479.67038882 129 478 C119.20424431 469.73375704 109.68956282 466.05247603 96.90625 466.62109375 C85.30846609 467.74607879 77.02221268 473.40612524 69.3125 481.875 Z M188.9296875 482.59765625 C187.21870234 485.02811425 185.60396414 487.49832649 184 490 C183.48197815 490.59988235 182.9639563 491.19976471 182.43023682 491.81782532 C180.67480073 494.49617071 180.63083345 496.02972532 180.64355469 499.21166992 C180.64055359 500.24921921 180.63755249 501.28676849 180.63446045 502.35575867 C180.64680725 503.46941299 180.65915405 504.58306732 180.671875 505.73046875 C180.67374817 506.87663162 180.67562134 508.02279449 180.67755127 509.20368958 C180.68426999 511.62369704 180.69818084 514.04369367 180.71875 516.46362305 C180.74996671 520.18353269 180.75972683 523.90301911 180.765625 527.62304688 C180.77479227 529.97135938 180.78516716 532.31966754 180.796875 534.66796875 C180.80112488 535.78769577 180.80537476 536.90742279 180.80975342 538.06108093 C180.81936096 539.08917374 180.82896851 540.11726654 180.83886719 541.17651367 C180.84569519 542.08600266 180.85252319 542.99549164 180.85955811 543.93254089 C180.77176047 545.99094641 180.77176047 545.99094641 182 547 C184.42317991 547.10561031 186.81800214 547.14678383 189.24194336 547.14526367 C189.9996553 547.14862228 190.75736725 547.1519809 191.53804016 547.15544128 C194.05532447 547.16497922 196.57254247 547.16689581 199.08984375 547.16796875 C200.83240283 547.17117936 202.57496164 547.17454328 204.31752014 547.17805481 C207.97527695 547.1840532 211.6330101 547.18589398 215.29077148 547.18530273 C219.98648929 547.18520107 224.68205602 547.19885437 229.377738 547.21607494 C232.97816164 547.22717295 236.57854851 547.22922262 240.1789875 547.22869301 C241.91060469 547.22987641 243.64222273 547.23431822 245.37382317 547.24202538 C247.79221159 547.25178111 250.21026879 547.2489649 252.62866211 547.24291992 C253.70955612 547.25134918 253.70955612 547.25134918 254.81228638 547.25994873 C258.85482683 547.34974102 258.85482683 547.34974102 262 545 C262.34011148 542.84995292 262.34011148 542.84995292 262.33813477 540.34179688 C262.36057755 539.37318726 262.38302032 538.40457764 262.40614319 537.40661621 C262.41778 536.35462036 262.42941681 535.30262451 262.44140625 534.21875 C262.45517807 533.13549438 262.46894989 532.05223877 262.48313904 530.93615723 C262.50645554 528.6362013 262.52369819 526.33617715 262.53540039 524.03613281 C262.56218556 520.54102984 262.63702357 517.0490202 262.71289062 513.5546875 C262.72956056 511.31772867 262.74332263 509.08074591 262.75390625 506.84375 C262.78376114 505.807948 262.81361603 504.772146 262.84437561 503.70495605 C262.79617464 495.62226361 260.12315639 491.10904811 255 485 C254.413965 484.25560669 253.82792999 483.51121338 253.22413635 482.7442627 C247.18357075 475.15044308 238.74009296 468.61146487 229 467 C213.05954495 465.50190021 199.30032424 469.58544222 188.9296875 482.59765625 Z M315 477 C314.10861328 477.78697266 314.10861328 477.78697266 313.19921875 478.58984375 C306.93203186 484.4957294 300.75809716 490.97448559 300.18945312 499.89282227 C300.18388026 502.0342283 300.2160265 504.17598649 300.28125 506.31640625 C300.28878296 507.45407944 300.29631592 508.59175262 300.30407715 509.76390076 C300.33638853 513.36471674 300.41804506 516.96250882 300.5 520.5625 C300.5265636 523.01363999 300.55003167 525.4648156 300.5703125 527.91601562 C300.62049598 532.3683608 300.67601658 536.82018469 300.77539062 541.27172852 C300.79428345 542.16312027 300.81317627 543.05451202 300.8326416 543.97291565 C300.77968687 545.99519604 300.77968687 545.99519604 302 547 C304.45905221 547.1003188 306.89003428 547.1361818 309.34960938 547.12939453 C310.11868118 547.13114685 310.88775299 547.13289917 311.68013 547.13470459 C314.23469263 547.1391234 316.78918661 547.13618502 319.34375 547.1328125 C321.11112481 547.13348553 322.87849953 547.13445555 324.64587402 547.13571167 C328.35490803 547.13718868 332.063918 547.13503398 335.77294922 547.13037109 C340.53822493 547.1246738 345.30344432 547.12795279 350.06871796 547.13394356 C353.71971057 547.13754908 357.37068973 547.13641062 361.02168274 547.13381577 C362.77924099 547.13314647 364.53680045 547.133975 366.2943573 547.13629532 C368.74640154 547.13882171 371.19835331 547.13498146 373.65039062 547.12939453 C374.75070366 547.13243088 374.75070366 547.13243088 375.87324524 547.13552856 C379.22137383 547.41575358 379.22137383 547.41575358 382 546 C382.09340434 544.37325222 382.11745171 542.74245949 382.11352539 541.11303711 C382.11344986 540.07203354 382.11337433 539.03102997 382.11329651 537.95848083 C382.10813522 536.8262056 382.10297394 535.69393036 382.09765625 534.52734375 C382.0962413 533.37456436 382.09482635 532.22178497 382.09336853 531.03407288 C382.08775005 527.33518936 382.07519442 523.63636536 382.0625 519.9375 C382.05748738 517.43684983 382.05292406 514.93619871 382.04882812 512.43554688 C382.03777462 506.29034412 382.02101852 500.14517631 382 494 C381.34 494 380.68 494 380 494 C379.690625 493.01 379.690625 493.01 379.375 492 C377.47239824 487.84886889 374.89179771 484.5157819 372 481 C371.49597656 480.38640625 370.99195313 479.7728125 370.47265625 479.140625 C364.19366344 472.20149358 355.07272269 467.44047097 345.71484375 466.76171875 C333.52347601 466.52217792 324.27851331 468.78980166 315 477 Z " fill="#000000" transform="translate(79,0)"/>
</svg>
